# xmcd CD database file
#
# Track frame offsets:
#	150
#	21313
#	44390
#	60140
#	92695
#
# Disc length: 1498 seconds
#
# Revision: 0
# Processed by: cddbd v1.5PL3 Copyright (c) Steve Scherf et al.
# Submitted via: CDex 1.51
#
DISCID=3305d805
DTITLE=Carnation - Venture Business vol.03
DYEAR=2003
DGENRE=Rock
TTITLE0=OOH! BABY
TTITLE1=放課後の屋上で （Rainy Day Demo）
TTITLE2=Venture Business Symphony #3 "Venture Massage 4 U"
TTITLE3=OOH! BABY Instrumental
TTITLE4=OOH! BABY ハイパーPV
EXTD=YEAR: 2003
EXTT0=
EXTT1=
EXTT2=
EXTT3=
EXTT4=
PLAYORDER=
